<svg width="20" height="20" viewBox="0 0 20 20" fill="none" xmlns="http://www.w3.org/2000/svg">
<g clip-path="url(#clip0_1_1904)">
<path d="M1.66699 9.99984C1.66699 6.07147 1.66699 4.10728 2.88738 2.88689C4.10777 1.6665 6.07195 1.6665 10.0003 1.6665C13.9287 1.6665 15.8929 1.6665 17.1133 2.88689C18.3337 4.10728 18.3337 6.07147 18.3337 9.99984C18.3337 13.9282 18.3337 15.8924 17.1133 17.1128C15.8929 18.3332 13.9287 18.3332 10.0003 18.3332C6.07195 18.3332 4.10777 18.3332 2.88738 17.1128C1.66699 15.8924 1.66699 13.9282 1.66699 9.99984Z" stroke="#877EFF" stroke-width="1.5"/>
<circle cx="13.3337" cy="6.66667" r="1.66667" stroke="#877EFF" stroke-width="1.5"/>
<path d="M1.66699 10.4169L3.12665 9.13976C3.88604 8.47529 5.03056 8.5134 5.74406 9.22691L9.31884 12.8017C9.89153 13.3744 10.793 13.4525 11.4557 12.9868L11.7042 12.8121C12.6577 12.142 13.9478 12.2196 14.8141 12.9993L17.5003 15.4169" stroke="#877EFF" stroke-width="1.5" stroke-linecap="round"/>
</g>
<defs>
<clipPath id="clip0_1_1904">
<rect width="20" height="20" fill="white"/>
</clipPath>
</defs>
</svg>
