<svg width="20" height="20" viewBox="0 0 20 20" fill="none" xmlns="http://www.w3.org/2000/svg">
<path fill-rule="evenodd" clip-rule="evenodd" d="M9.95251 1.0415H10.0481C11.9718 1.04149 13.4793 1.04148 14.6556 1.19963C15.8595 1.36149 16.8095 1.69928 17.5552 2.44495C18.3009 3.19063 18.6387 4.14065 18.8005 5.34459C18.9587 6.52083 18.9587 8.02836 18.9587 9.95203V10.0476C18.9587 11.9713 18.9587 13.4788 18.8005 14.6551C18.6387 15.859 18.3009 16.809 17.5552 17.5547C16.8095 18.3004 15.8595 18.6382 14.6556 18.8C13.4793 18.9582 11.9718 18.9582 10.0481 18.9582H9.95252C8.02885 18.9582 6.52132 18.9582 5.34508 18.8C4.14113 18.6382 3.19111 18.3004 2.44544 17.5547C1.69976 16.809 1.36198 15.859 1.20011 14.6551C1.04197 13.4788 1.04198 11.9713 1.04199 10.0477V9.95202C1.04198 8.02836 1.04197 6.52083 1.20011 5.34459C1.36198 4.14065 1.69976 3.19063 2.44544 2.44495C3.19111 1.69928 4.14113 1.36149 5.34508 1.19963C6.52132 1.04148 8.02885 1.04149 9.95251 1.0415ZM5.51164 2.43848C4.4463 2.58171 3.80404 2.85412 3.32932 3.32883C2.85461 3.80355 2.5822 4.44582 2.43897 5.51115C2.41634 5.67945 2.3972 5.85596 2.381 6.0415H5.49057L7.87065 2.30138C6.93109 2.3158 6.16037 2.35126 5.51164 2.43848ZM9.33963 2.29177C9.32414 2.33541 9.30353 2.37799 9.27761 2.41872L6.9722 6.0415H10.9072L13.2661 2.33476C12.3801 2.29209 11.3126 2.2915 10.0003 2.2915C9.77285 2.2915 9.55273 2.29152 9.33963 2.29177ZM14.6655 2.46399L12.3889 6.0415H17.6197C17.6035 5.85596 17.5843 5.67945 17.5617 5.51115C17.4185 4.44582 17.146 3.80355 16.6713 3.32883C16.2234 2.88092 15.6263 2.61312 14.6655 2.46399ZM17.6864 7.2915H11.2597C11.2531 7.29161 11.2464 7.29161 11.2398 7.2915H5.84301C5.83639 7.29161 5.82976 7.29161 5.82313 7.2915H2.31426C2.29236 8.05961 2.29199 8.95163 2.29199 9.99984C2.29199 11.9817 2.29332 13.4052 2.43897 14.4885C2.5822 15.5539 2.85461 16.1961 3.32932 16.6708C3.80404 17.1456 4.4463 17.418 5.51164 17.5612C6.59495 17.7068 8.01847 17.7082 10.0003 17.7082C11.9822 17.7082 13.4057 17.7068 14.489 17.5612C15.5543 17.418 16.1966 17.1456 16.6713 16.6708C17.146 16.1961 17.4185 15.5539 17.5617 14.4885C17.7073 13.4052 17.7087 11.9817 17.7087 9.99984C17.7087 8.95163 17.7083 8.05961 17.6864 7.2915ZM11.1405 9.9342L11.2252 9.98884C11.7417 10.322 12.1889 10.6105 12.5006 10.8862C12.8322 11.1795 13.1253 11.557 13.1253 12.0832C13.1253 12.6093 12.8322 12.9869 12.5006 13.2801C12.1889 13.5558 11.7417 13.8443 11.2252 14.1775L11.1405 14.2321C10.6187 14.5689 10.1653 14.8615 9.78857 15.0288C9.39664 15.2028 8.89446 15.3282 8.41551 15.0239C7.96163 14.7355 7.82401 14.2434 7.76626 13.81C7.7086 13.3774 7.70863 12.806 7.70866 12.129V12.0374C7.70863 11.3604 7.7086 10.789 7.76626 10.3563C7.82401 9.92298 7.96163 9.4308 8.41551 9.14245C8.89446 8.83817 9.39664 8.96355 9.78857 9.13757C10.1653 9.30482 10.6187 9.59747 11.1405 9.9342ZM9.04859 10.2096C9.04809 10.2089 9.05198 10.2079 9.06178 10.2085C9.054 10.2105 9.04909 10.2102 9.04859 10.2096ZM9.08125 10.2109C9.11471 10.2166 9.17689 10.2337 9.28131 10.28C9.55763 10.4027 9.92819 10.6396 10.5064 11.0127C11.0759 11.3801 11.4408 11.6176 11.6725 11.8226C11.8859 12.0113 11.8762 12.0775 11.8754 12.0828C11.8762 12.0882 11.8859 12.1551 11.6725 12.3438C11.4408 12.5487 11.0759 12.7862 10.5064 13.1537C9.92819 13.5268 9.55763 13.7636 9.28131 13.8863C9.17689 13.9327 9.11471 13.9498 9.08124 13.9555C9.06273 13.9198 9.03046 13.8337 9.00531 13.6449C8.96001 13.305 8.95866 12.8183 8.95866 12.0832C8.95866 11.3481 8.96001 10.8614 9.00531 10.5214C9.03046 10.3327 9.06274 10.2465 9.08125 10.2109ZM9.04859 13.9568C9.0491 13.9561 9.054 13.9558 9.06178 13.9579C9.05197 13.9585 9.04808 13.9574 9.04859 13.9568ZM9.09205 13.9733C9.09491 13.9757 9.09616 13.9774 9.09607 13.9776C9.09597 13.9778 9.09454 13.9766 9.09205 13.9733ZM9.09205 10.193C9.09455 10.1897 9.09598 10.1885 9.09607 10.1887C9.09616 10.189 9.09491 10.1906 9.09205 10.193Z" fill="#877EFF"/>
</svg>
