<svg width="20" height="20" viewBox="0 0 20 20" fill="none" xmlns="http://www.w3.org/2000/svg">
<path fill-rule="evenodd" clip-rule="evenodd" d="M15.1199 3.02553C14.1449 3.19897 12.8305 3.63535 10.9857 4.25026L6.80967 5.64228C5.32632 6.13674 4.25192 6.49541 3.49305 6.81817C2.69966 7.15561 2.41742 7.39083 2.32576 7.5485C2.04342 8.03416 2.04342 8.63397 2.32576 9.11962C2.41742 9.27729 2.69966 9.51251 3.49305 9.84995C4.25192 10.1727 5.32632 10.5314 6.80967 11.0258C6.8331 11.0336 6.85622 11.0413 6.87906 11.0489C7.28421 11.1837 7.59917 11.2885 7.87012 11.4699C8.13116 11.6446 8.3554 11.8688 8.53015 12.1299C8.71153 12.4008 8.8163 12.7158 8.95107 13.1209C8.95866 13.1438 8.96636 13.1669 8.97416 13.1903C9.46862 14.6737 9.82728 15.7481 10.15 16.507C10.4875 17.3003 10.7227 17.5826 10.8804 17.6742C11.366 17.9566 11.9658 17.9566 12.4515 17.6742C12.6092 17.5826 12.8444 17.3003 13.1818 16.507C13.5046 15.7481 13.8633 14.6737 14.3577 13.1903L15.7497 9.01427C16.3646 7.16953 16.801 5.85506 16.9745 4.88008C17.1487 3.90046 17.0156 3.48433 16.7656 3.23439C16.5157 2.98444 16.0995 2.85126 15.1199 3.02553ZM14.8957 1.76481C15.9808 1.57177 16.9582 1.61601 17.6711 2.32893C18.384 3.04184 18.4282 4.01919 18.2352 5.10435C18.0433 6.18296 17.5754 7.58663 16.983 9.36375L15.5622 13.6261C15.0802 15.0722 14.7056 16.196 14.3602 17.0081C14.027 17.7915 13.657 18.4546 13.0951 18.7813C12.2115 19.2949 11.1203 19.2949 10.2368 18.7813C9.67485 18.4546 9.30488 17.7915 8.97169 17.0081C8.62626 16.196 8.2517 15.0723 7.76964 13.6261L7.75937 13.5953C7.59048 13.0886 7.539 12.9512 7.46607 12.8422C7.38444 12.7203 7.2797 12.6156 7.15777 12.5339C7.04883 12.461 6.9114 12.4095 6.40474 12.2406L6.37387 12.2303C4.92771 11.7483 3.80402 11.3737 2.99187 11.0283C2.20847 10.6951 1.54542 10.3251 1.21873 9.76319C0.705086 8.87967 0.705086 7.78846 1.21873 6.90493C1.54542 6.34298 2.20847 5.97301 2.99187 5.63981C3.80403 5.29438 4.92774 4.91982 6.37393 4.43776L10.6363 3.01698C12.4134 2.42459 13.817 1.95669 14.8957 1.76481ZM14.7341 5.27094C14.9827 5.52235 14.9805 5.92773 14.7291 6.17638L11.3144 9.55343C11.063 9.80208 10.6576 9.79983 10.4089 9.54842C10.1603 9.297 10.1625 8.89162 10.4139 8.64297L13.8286 5.26592C14.0801 5.01727 14.4854 5.01952 14.7341 5.27094Z" fill="#FFB620"/>
</svg>
