<svg width="20" height="20" viewBox="0 0 20 20" fill="none" xmlns="http://www.w3.org/2000/svg">
<g clip-path="url(#clip0_1_2876)">
<path d="M3.94042 13.4472C2.65248 12.1593 2.00851 11.5153 1.76889 10.6798C1.52927 9.84431 1.73405 8.95692 2.14361 7.18213L2.3798 6.15865C2.72437 4.66551 2.89666 3.91894 3.40789 3.40771C3.91912 2.89648 4.66569 2.72419 6.15883 2.37962L7.18231 2.14343C8.9571 1.73387 9.84449 1.52908 10.68 1.7687C11.5155 2.00832 12.1595 2.6523 13.4474 3.94024L14.9721 5.46494C17.2129 7.70576 18.3334 8.82617 18.3334 10.2184C18.3334 11.6107 17.2129 12.7311 14.9721 14.9719C12.7313 17.2128 11.6109 18.3332 10.2186 18.3332C8.82635 18.3332 7.70594 17.2128 5.46512 14.9719L3.94042 13.4472Z" stroke="#877EFF" stroke-width="1.5"/>
<circle cx="7.17257" cy="7.39941" r="1.66667" transform="rotate(-45 7.17257 7.39941)" stroke="#877EFF" stroke-width="1.5"/>
<path d="M9.61812 15.4165L15.434 9.60046" stroke="#877EFF" stroke-width="1.5" stroke-linecap="round"/>
</g>
<defs>
<clipPath id="clip0_1_2876">
<rect width="20" height="20" fill="white"/>
</clipPath>
</defs>
</svg>
